<?xml version="1.0" standalone="no"?>
<!DOCTYPE svg PUBLIC "-//W3C//DTD SVG 20010904//EN"
 "http://www.w3.org/TR/2001/REC-SVG-20010904/DTD/svg10.dtd">
<svg version="1.0" xmlns="http://www.w3.org/2000/svg"
 width="500.000000pt" height="500.000000pt" viewBox="0 0 500.000000 500.000000"
 preserveAspectRatio="xMidYMid meet">

<g transform="translate(0.000000,500.000000) scale(0.100000,-0.100000)"
fill="#000000" stroke="none">
<path d="M2560 3248 c0 -30 -39 -68 -106 -102 -60 -30 -78 -64 -63 -119 14
-51 41 -80 150 -162 101 -76 125 -79 66 -9 -78 93 -86 131 -38 186 15 18 33
43 40 55 24 46 7 129 -33 162 -14 12 -16 10 -16 -11z"/>
<path d="M2307 3109 c-73 -60 -94 -137 -58 -215 24 -52 59 -78 201 -149 129
-65 161 -88 208 -153 l32 -46 0 35 c0 81 -84 187 -231 291 -37 25 -79 62 -94
82 -36 47 -45 124 -21 161 22 34 8 32 -37 -6z"/>
<path d="M2174 2875 c-5 -22 -9 -83 -9 -136 1 -88 4 -102 33 -162 40 -80 83
-118 175 -153 89 -34 179 -95 201 -137 12 -22 17 -47 14 -75 -2 -23 -2 -42 0
-42 17 0 63 48 86 90 22 40 28 65 28 109 0 135 -84 223 -323 341 -134 66 -173
102 -189 175 l-7 30 -9 -40z"/>
<path d="M2260 2393 c0 -40 28 -77 91 -119 74 -49 113 -102 107 -144 -6 -42
12 -38 56 10 72 80 44 126 -136 218 -116 59 -118 60 -118 35z"/>
<path d="M1825 2281 c-18 -7 -18 -9 5 -24 33 -21 96 -34 200 -41 l85 -5 -85
13 c-81 12 -141 34 -155 56 -7 12 -22 12 -50 1z"/>
<path d="M3130 2281 c0 -15 -58 -44 -105 -52 l-40 -6 41 -2 c49 -1 137 24 154
44 10 12 10 15 -3 15 -8 0 -22 3 -31 6 -9 3 -16 1 -16 -5z"/>
<path d="M1638 2226 c-100 -25 -6 -55 222 -71 102 -7 217 -21 255 -30 145 -36
261 -110 330 -210 21 -30 40 -55 42 -55 11 0 -42 84 -81 127 -107 119 -225
169 -434 183 -162 12 -238 25 -272 49 -20 13 -32 15 -62 7z"/>
<path d="M3306 2215 c-28 -21 -105 -34 -261 -45 -165 -11 -245 -32 -331 -88
-65 -42 -139 -114 -166 -160 -10 -17 12 0 55 43 123 123 288 185 492 185 110
0 243 19 283 39 l37 19 -40 11 c-49 13 -46 13 -69 -4z"/>
<path d="M2918 2213 c12 -2 32 -2 45 0 12 2 2 4 -23 4 -25 0 -35 -2 -22 -4z"/>
<path d="M2160 2195 c24 -8 46 -13 48 -11 5 5 -59 26 -77 25 -9 0 4 -7 29 -14z"/>
<path d="M2868 2203 c7 -3 16 -2 19 1 4 3 -2 6 -13 5 -11 0 -14 -3 -6 -6z"/>
<path d="M2828 2193 c7 -3 16 -2 19 1 4 3 -2 6 -13 5 -11 0 -14 -3 -6 -6z"/>
<path d="M2220 2176 c0 -2 7 -7 16 -10 8 -3 12 -2 9 4 -6 10 -25 14 -25 6z"/>
<path d="M2754 2164 c-18 -14 -18 -14 6 -3 31 14 36 19 24 19 -6 0 -19 -7 -30
-16z"/>
<path d="M1360 2067 l-112 -82 179 -6 c192 -7 227 -10 433 -41 183 -27 317
-59 603 -144 16 -5 18 -2 12 18 -11 37 -68 119 -116 166 -54 54 -105 84 -189
113 -61 20 -84 22 -340 23 -230 1 -282 4 -316 18 l-42 16 -112 -81z"/>
<path d="M3460 2124 c-31 -8 -121 -13 -281 -13 -130 -1 -261 -6 -290 -11 -139
-26 -283 -132 -341 -250 -14 -30 -25 -56 -24 -57 2 -2 63 15 137 37 276 83
608 137 913 148 l180 7 -107 78 c-59 42 -115 76 -125 76 -9 -1 -37 -7 -62 -15z"/>
<path d="M1167 1907 l-28 -22 183 3 c281 6 584 -22 866 -79 57 -11 106 -19
108 -16 9 8 -286 69 -446 92 -208 30 -388 45 -538 45 -106 0 -120 -2 -145 -23z"/>
<path d="M3395 1915 c-161 -15 -257 -28 -405 -56 -125 -23 -322 -70 -317 -75
2 -2 44 5 93 16 274 60 520 84 837 85 l258 0 -28 22 c-26 21 -37 23 -163 22
-74 -1 -198 -7 -275 -14z"/>
<path d="M1740 1820 c304 -46 548 -101 698 -155 l62 -23 64 24 c140 51 519
131 791 167 22 3 18 4 -15 6 -134 4 -596 -68 -772 -121 l-68 -20 -67 20 c-165
49 -511 106 -713 116 l-105 6 125 -20z"/>
<path d="M2638 1773 c7 -3 16 -2 19 1 4 3 -2 6 -13 5 -11 0 -14 -3 -6 -6z"/>
</g>
</svg>
